<svg width="111" height="119" viewBox="0 0 111 119" fill="none" xmlns="http://www.w3.org/2000/svg">
<g filter="url(#filter0_d_1323_9365)">
<path fill-rule="evenodd" clip-rule="evenodd" d="M6 54.5L55.5 2L105 54.5H94V109.5H65C65 109.5 54.8784 99.2492 55.5 92.5C55.6827 90.516 55.9885 88.8125 56.5028 87.25C57.738 83.4972 60.1759 80.5579 65 76.5H79V65.5V54.5H89.5L86 50.5H26L24 54.5H34.5V66V76.5V87.25V98H55.5V109.5H20.5V54.5H6ZM38 38.5L55.5 19.5L74 38.5H38ZM79 98V87.25C79 87.25 73.1951 85.3121 70.5 87.25C68.5828 88.6285 67.5468 90.1391 67.5 92.5C67.4516 94.9461 68.5164 96.5678 70.5 98C73.1913 99.9431 79 98 79 98Z" fill="white"/>
<path d="M89.5 54.5L86 50.5H26L24 54.5M89.5 54.5H94M89.5 54.5H24M89.5 54.5H79M24 54.5H20.5M24 54.5H34.5M20.5 54.5H6L55.5 2L105 54.5H94M20.5 54.5V109.5H55.5V98H34.5V87.25M34.5 54.5H79M34.5 54.5V66M79 54.5V65.5M79 76.5H65M79 76.5V65.5M79 76.5H34.5M65 76.5C60.1759 80.5579 57.738 83.4972 56.5028 87.25M65 76.5H34.5M94 54.5V109.5H65C65 109.5 54.8784 99.2492 55.5 92.5C55.6827 90.516 55.9885 88.8125 56.5028 87.25M34.5 66L79 65.5M34.5 66V76.5M34.5 76.5V87.25M34.5 87.25H56.5028M38 38.5L55.5 19.5L74 38.5H38ZM79 87.25V98C79 98 73.1913 99.9431 70.5 98C68.5164 96.5678 67.4516 94.9461 67.5 92.5C67.5468 90.1391 68.5828 88.6285 70.5 87.25C73.1951 85.3121 79 87.25 79 87.25Z" stroke="white" stroke-width="1.5"/>
</g>
<defs>
<filter id="filter0_d_1323_9365" x="0.262207" y="0.906738" width="110.476" height="117.343" filterUnits="userSpaceOnUse" color-interpolation-filters="sRGB">
<feFlood flood-opacity="0" result="BackgroundImageFix"/>
<feColorMatrix in="SourceAlpha" type="matrix" values="0 0 0 0 0 0 0 0 0 0 0 0 0 0 0 0 0 0 127 0" result="hardAlpha"/>
<feOffset dy="4"/>
<feGaussianBlur stdDeviation="2"/>
<feComposite in2="hardAlpha" operator="out"/>
<feColorMatrix type="matrix" values="0 0 0 0 1 0 0 0 0 1 0 0 0 0 1 0 0 0 0.25 0"/>
<feBlend mode="normal" in2="BackgroundImageFix" result="effect1_dropShadow_1323_9365"/>
<feBlend mode="normal" in="SourceGraphic" in2="effect1_dropShadow_1323_9365" result="shape"/>
</filter>
</defs>
</svg>
